<?xml version="1.0" standalone="no"?>
<!DOCTYPE svg PUBLIC "-//W3C//DTD SVG 20010904//EN"
 "http://www.w3.org/TR/2001/REC-SVG-20010904/DTD/svg10.dtd">
<svg version="1.0" xmlns="http://www.w3.org/2000/svg"
 width="512.000000pt" height="512.000000pt" viewBox="0 0 512.000000 512.000000"
 preserveAspectRatio="xMidYMid meet">
<metadata>
Created by potrace 1.14, written by Peter Selinger 2001-2017
</metadata>
<g transform="translate(0.000000,512.000000) scale(0.100000,-0.100000)"
fill="#000000" stroke="none">
<path d="M1795 5106 c-54 -17 -116 -57 -149 -97 l-28 -33 -108 -2 c-83 -2
-114 -6 -134 -20 -37 -23 -56 -64 -56 -117 l0 -44 -42 -6 c-120 -16 -222 -49
-343 -109 -165 -82 -324 -223 -425 -375 -30 -46 -59 -83 -65 -84 -25 -1 -157
-17 -195 -23 -14 -2 -47 -7 -75 -11 -75 -10 -117 -31 -145 -72 l-25 -37 0
-1117 0 -1118 21 -28 c38 -51 77 -69 176 -83 51 -7 99 -12 106 -13 9 0 12
-168 12 -802 l0 -802 23 -34 c12 -18 38 -44 56 -56 l34 -23 1647 0 1647 0 34
23 c18 12 44 38 56 56 l23 34 0 803 c0 758 1 803 18 802 9 0 31 2 47 5 17 3
56 9 88 13 62 7 107 32 141 77 20 27 21 42 24 326 l3 297 49 13 c62 16 121 55
158 105 23 31 41 43 92 58 79 25 148 89 177 168 l20 53 74 2 c84 1 112 13 139
58 19 31 20 56 20 707 l0 676 35 13 c53 19 130 99 162 166 24 51 28 73 28 150
0 77 -4 98 -26 146 -37 79 -87 130 -166 170 -62 31 -74 34 -157 34 -80 0 -98
-4 -148 -28 -224 -110 -275 -395 -102 -570 25 -25 66 -56 92 -69 l47 -23 0
-583 c0 -320 -1 -582 -2 -582 -2 0 -14 21 -28 48 -13 26 -30 54 -37 62 -28 34
-86 69 -140 85 -32 9 -58 20 -58 25 0 16 -75 88 -113 109 -20 11 -55 24 -77
27 l-39 6 -3 308 c-3 295 -4 310 -24 337 -32 44 -78 70 -136 77 -29 4 -66 9
-83 12 -31 4 -59 8 -157 20 l-56 6 -53 81 c-159 245 -451 434 -736 479 l-73
12 0 43 c0 53 -20 94 -56 118 -21 14 -51 18 -134 19 l-107 2 -36 40 c-20 22
-62 53 -94 70 l-58 29 -260 2 c-190 2 -271 -1 -300 -11z"/>
</g>
</svg>
